<svg width="25" height="24" viewBox="0 0 25 24" fill="none" xmlns="http://www.w3.org/2000/svg">
<path d="M3.70898 12C3.70898 13.78 4.23683 15.5201 5.22576 17.0001C6.21469 18.4802 7.6203 19.6337 9.26483 20.3149C10.9094 20.9961 12.719 21.1743 14.4648 20.8271C16.2106 20.4798 17.8143 19.6226 19.0729 18.364C20.3316 17.1053 21.1888 15.5016 21.5361 13.7558C21.8833 12.01 21.7051 10.2004 21.0239 8.55585C20.3427 6.91131 19.1892 5.50571 17.7091 4.51677C16.2291 3.52784 14.489 3 12.709 3C10.1929 3.00947 7.77795 3.99122 5.96898 5.74L3.70898 8" stroke="white" stroke-width="1.2" stroke-linecap="round" stroke-linejoin="round"/>
<path d="M3.70898 3V8H8.70898" stroke="white" stroke-width="1.2" stroke-linecap="round" stroke-linejoin="round"/>
<path d="M12.709 7V12L16.709 14" stroke="white" stroke-width="1.2" stroke-linecap="round" stroke-linejoin="round"/>
</svg>
