<svg width="25" height="24" viewBox="0 0 25 24" fill="none" xmlns="http://www.w3.org/2000/svg">
<path d="M14.5787 5.55302C14.8563 5.69173 15.1623 5.76395 15.4727 5.76395C15.783 5.76395 16.0891 5.69173 16.3667 5.55302L20.0257 3.72302C20.1782 3.64678 20.3478 3.61083 20.5182 3.61858C20.6885 3.62634 20.8541 3.67755 20.9991 3.76735C21.1441 3.85714 21.2638 3.98253 21.3466 4.1316C21.4295 4.28067 21.4729 4.44846 21.4727 4.61902V17.383C21.4726 17.5687 21.4208 17.7506 21.3231 17.9085C21.2254 18.0664 21.0857 18.194 20.9197 18.277L16.3667 20.554C16.0891 20.6927 15.783 20.7649 15.4727 20.7649C15.1623 20.7649 14.8563 20.6927 14.5787 20.554L10.3667 18.448C10.0891 18.3093 9.78299 18.2371 9.47266 18.2371C9.16233 18.2371 8.85626 18.3093 8.57866 18.448L4.91966 20.278C4.76701 20.3543 4.59738 20.3902 4.42692 20.3824C4.25645 20.3746 4.09081 20.3233 3.94578 20.2334C3.80074 20.1435 3.68112 20.018 3.59831 19.8688C3.51549 19.7196 3.47224 19.5517 3.47266 19.381V6.61802C3.47276 6.43235 3.52454 6.25039 3.62221 6.09249C3.71988 5.93459 3.85958 5.80701 4.02566 5.72402L8.57866 3.44702C8.85626 3.3083 9.16233 3.23608 9.47266 3.23608C9.78299 3.23608 10.0891 3.3083 10.3667 3.44702L14.5787 5.55302Z" stroke="white" stroke-width="1.2" stroke-linecap="round" stroke-linejoin="round"/>
<path d="M15.4727 5.76404V20.764" stroke="white" stroke-width="1.2" stroke-linecap="round" stroke-linejoin="round"/>
<path d="M9.47266 3.23596V18.236" stroke="white" stroke-width="1.2" stroke-linecap="round" stroke-linejoin="round"/>
</svg>
